<svg id="visual" viewBox="0 0 900 600" width="900" height="600" xmlns="http://www.w3.org/2000/svg" xmlns:xlink="http://www.w3.org/1999/xlink" version="1.1"><rect x="0" y="0" width="900" height="600" fill="#ffffff"></rect><path d="M0 330L21.5 306.8C43 283.7 86 237.3 128.8 241.7C171.7 246 214.3 301 257.2 336.8C300 372.7 343 389.3 385.8 357.7C428.7 326 471.3 246 514.2 250.5C557 255 600 344 642.8 365C685.7 386 728.3 339 771.2 323.2C814 307.3 857 322.7 878.5 330.3L900 338L900 601L878.5 601C857 601 814 601 771.2 601C728.3 601 685.7 601 642.8 601C600 601 557 601 514.2 601C471.3 601 428.7 601 385.8 601C343 601 300 601 257.2 601C214.3 601 171.7 601 128.8 601C86 601 43 601 21.5 601L0 601Z" fill="#4f483d" stroke-linecap="round" stroke-linejoin="miter"></path></svg>