<svg id="visual" viewBox="0 0 900 600" width="900" height="600" xmlns="http://www.w3.org/2000/svg" xmlns:xlink="http://www.w3.org/1999/xlink" version="1.1"><rect x="0" y="0" width="900" height="600" fill="#ffffff"></rect><path d="M0 355L11.5 351.7C23 348.3 46 341.7 69 328.3C92 315 115 295 138.2 309.3C161.3 323.7 184.7 372.3 207.8 375.3C231 378.3 254 335.7 277 320.8C300 306 323 319 346 341.7C369 364.3 392 396.7 415.2 383C438.3 369.3 461.7 309.7 484.8 309.2C508 308.7 531 367.3 554 375.7C577 384 600 342 623 338.2C646 334.3 669 368.7 692.2 390.3C715.3 412 738.7 421 761.8 400C785 379 808 328 831 325.2C854 322.3 877 367.7 888.5 390.3L900 413L900 601L888.5 601C877 601 854 601 831 601C808 601 785 601 761.8 601C738.7 601 715.3 601 692.2 601C669 601 646 601 623 601C600 601 577 601 554 601C531 601 508 601 484.8 601C461.7 601 438.3 601 415.2 601C392 601 369 601 346 601C323 601 300 601 277 601C254 601 231 601 207.8 601C184.7 601 161.3 601 138.2 601C115 601 92 601 69 601C46 601 23 601 11.5 601L0 601Z" fill="#715DF2" stroke-linecap="round" stroke-linejoin="miter"></path></svg>