<svg id="visual" viewBox="0 0 900 600" width="900" height="600" xmlns="http://www.w3.org/2000/svg" xmlns:xlink="http://www.w3.org/1999/xlink" version="1.1"><rect x="0" y="0" width="900" height="600" fill="#ffffff"></rect><path d="M0 304L12.5 289.2C25 274.3 50 244.7 75 243C100 241.3 125 267.7 150 289C175 310.3 200 326.7 225 321.2C250 315.7 275 288.3 300 287.5C325 286.7 350 312.3 375 312.2C400 312 425 286 450 265C475 244 500 228 525 248.2C550 268.3 575 324.7 600 343.8C625 363 650 345 675 344.2C700 343.3 725 359.7 750 367.2C775 374.7 800 373.3 825 366.3C850 359.3 875 346.7 887.5 340.3L900 334L900 601L887.5 601C875 601 850 601 825 601C800 601 775 601 750 601C725 601 700 601 675 601C650 601 625 601 600 601C575 601 550 601 525 601C500 601 475 601 450 601C425 601 400 601 375 601C350 601 325 601 300 601C275 601 250 601 225 601C200 601 175 601 150 601C125 601 100 601 75 601C50 601 25 601 12.5 601L0 601Z" fill="#715DF2" stroke-linecap="round" stroke-linejoin="miter"></path></svg>